<svg xmlns="http://www.w3.org/2000/svg" viewBox="0 0 818 497" fill="none">
  <!-- Monogram Mark -->
  <g transform="translate(131.5, 0)" fill="#c8a46e">
    <g transform="translate(-12.000000,389.087774) scale(0.100000,-0.100000)">
      <path d="M5245 3649 c-225 -137 -461 -280 -522 -317 l-113 -67 0 -950 c0 -799
-3 -961 -15 -1020 -41 -192 -169 -333 -367 -402 -59 -21 -92 -26 -176 -26 -56
0 -101 -4 -100 -8 2 -4 82 -96 178 -205 96 -110 236 -270 310 -357 l135 -158
50 7 c431 55 840 398 979 819 64 194 60 89 63 1569 2 742 0 1353 -4 1357 -4 4
-192 -105 -418 -242z"/>
    <path d="M120 2775 c0 -597 4 -1085 8 -1085 27 0 768 571 965 743 l67 59 0
684 0 684 -520 0 -520 0 0 -1085z"/>
    <path d="M1145 2284 c-255 -205 -614 -475 -875 -656 l-149 -103 0 -697 -1
-698 520 0 520 0 0 805 0 805 848 0 c812 0 850 -1 930 -20 185 -44 300 -120
589 -391 254 -238 321 -299 329 -299 4 0 0 8 -7 18 -55 70 -487 579 -912 1074
-170 198 -208 232 -312 280 l-50 23 -625 2 -625 2 -180 -145z"/>
    <path d="M1980 1584 c0 -3 17 -30 37 -58 99 -137 508 -707 592 -826 164 -230
298 -351 496 -449 232 -114 349 -128 953 -114 l332 8 -197 225 c-419 479 -784
877 -909 991 -101 91 -216 159 -339 200 -68 22 -83 23 -517 26 -247 3 -448 1
-448 -3z"/>
    </g>
  </g>
  <!-- Wordmark -->
  <g transform="translate(0, 426)" fill="#f0f0f5">
    <g transform="translate(-14.000000,81.891406) scale(0.100000,-0.100000)">
      <path d="M4645 806 c-114 -27 -219 -104 -258 -189 -48 -101 -44 -233 8 -323
37 -63 115 -128 187 -155 54 -21 80 -24 183 -23 133 0 191 16 282 77 l48 32 0
145 0 145 -175 0 -175 0 -3 -62 -3 -63 101 0 100 0 0 -48 c0 -48 -1 -49 -42
-68 -32 -14 -65 -19 -133 -19 -77 0 -98 4 -140 26 -118 60 -149 216 -63 315
54 61 100 79 203 79 92 -1 147 -18 198 -63 17 -15 22 -12 70 37 l52 52 -30 25
c-97 79 -272 114 -410 80z"/>
    <path d="M7912 810 c-181 -38 -262 -210 -151 -321 44 -44 93 -61 248 -84 117
-17 151 -33 151 -71 0 -61 -41 -84 -151 -84 -77 0 -150 23 -204 64 -18 14 -38
26 -43 26 -6 0 -29 -23 -52 -50 -49 -59 -48 -63 42 -117 70 -42 153 -63 253
-63 192 0 315 87 315 223 0 128 -70 180 -284 212 -58 8 -117 20 -131 27 -38
17 -42 46 -11 77 25 24 32 26 124 26 89 0 101 -2 151 -30 l53 -30 35 40 c59
69 59 71 8 101 -25 14 -67 33 -93 41 -59 18 -203 25 -260 13z"/>
    <path d="M140 465 l0 -335 90 0 90 0 0 135 c0 131 1 135 23 140 12 3 94 4 182
3 l160 -3 3 -137 3 -138 83 0 84 0 5 33 c2 17 4 167 3 332 l-1 300 -88 3 -87
3 0 -126 0 -125 -185 0 -185 0 0 125 0 125 -90 0 -90 0 0 -335z"/>
    <path d="M1180 585 c0 -171 3 -224 16 -262 48 -142 184 -222 354 -210 137 10
229 67 282 175 l33 66 3 223 4 223 -91 0 -91 0 0 -210 c0 -192 -2 -214 -20
-250 -39 -77 -167 -107 -240 -57 -69 46 -75 67 -78 305 l-3 212 -85 0 -84 0 0
-215z"/>
    <path d="M2510 465 l0 -335 305 0 305 0 0 65 0 65 -225 0 -225 0 0 75 0 75
170 0 170 0 0 65 0 65 -170 0 -170 0 0 65 0 65 215 0 215 0 0 65 0 65 -295 0
-295 0 0 -335z"/>
    <path d="M3400 465 l0 -336 73 3 72 3 3 213 2 212 179 -207 c98 -115 185 -214
193 -221 11 -9 40 -12 90 -10 l73 3 5 90 c3 50 4 201 2 338 l-3 247 -69 0 -70
0 -2 -235 -3 -236 -131 159 c-73 87 -162 193 -200 235 l-67 77 -74 0 -73 0 0
-335z"/>
    <path d="M5400 465 l0 -335 80 0 80 0 0 335 0 335 -80 0 -80 0 0 -335z"/>
    <path d="M5865 788 c-3 -7 -4 -159 -3 -338 l3 -325 64 -3 c35 -2 69 2 74 7 6
6 10 78 9 183 -1 95 1 190 4 210 l6 37 196 -220 197 -220 85 3 85 3 3 338 2
337 -75 0 -75 0 -2 -236 -3 -236 -64 73 c-35 41 -129 147 -209 237 l-146 162
-73 0 c-50 0 -75 -4 -78 -12z"/>
    <path d="M6870 465 l0 -335 295 0 296 0 -3 63 -3 62 -215 5 -215 5 2 70 1 70
166 3 166 2 0 65 0 65 -167 2 -168 3 0 60 0 60 213 3 212 2 0 65 0 65 -290 0
-290 0 0 -335z"/>
    </g>
  </g>
</svg>